<svg width="90" height="28" viewBox="0 0 90 28" fill="none" xmlns="http://www.w3.org/2000/svg">
<path d="M86.0312 17.6055C86.0312 16.8867 85.7773 16.2812 85.2695 15.7891C84.7695 15.2969 83.9219 14.8516 82.7266 14.4531C81.0625 13.9453 79.8477 13.2852 79.082 12.4727C78.3242 11.6523 77.9453 10.6133 77.9453 9.35547C77.9453 8.07422 78.3164 7.02344 79.0586 6.20312C79.8086 5.38281 80.8359 4.89453 82.1406 4.73828V2.17188H83.8867V4.75C85.1992 4.92969 86.2188 5.48047 86.9453 6.40234C87.6797 7.32422 88.0469 8.58594 88.0469 10.1875H85.8906C85.8906 9.08594 85.6289 8.21094 85.1055 7.5625C84.582 6.91406 83.875 6.58984 82.9844 6.58984C82.0547 6.58984 81.3438 6.83203 80.8516 7.31641C80.3594 7.79297 80.1133 8.46094 80.1133 9.32031C80.1133 10.1172 80.3711 10.7539 80.8867 11.2305C81.4102 11.6992 82.2656 12.1289 83.4531 12.5195C84.6484 12.9023 85.5781 13.3281 86.2422 13.7969C86.9141 14.2578 87.4062 14.7969 87.7188 15.4141C88.0391 16.0312 88.1992 16.7539 88.1992 17.582C88.1992 18.9023 87.8008 19.9648 87.0039 20.7695C86.2148 21.5742 85.1055 22.0508 83.6758 22.1992V24.4375H81.9414V22.1992C80.4883 22.0664 79.3477 21.5508 78.5195 20.6523C77.6992 19.7461 77.2891 18.5195 77.2891 16.9727H79.457C79.457 18.0586 79.7422 18.8945 80.3125 19.4805C80.8828 20.0664 81.6914 20.3594 82.7383 20.3594C83.7617 20.3594 84.5664 20.1133 85.1523 19.6211C85.7383 19.1289 86.0312 18.457 86.0312 17.6055Z" fill="#3CD323"/>
<path d="M8.54297 14.3486H3.17285V20H1.48535V7.20312H9.41309V8.5918H3.17285V12.9688H8.54297V14.3486ZM12.9463 20H11.3203V10.4902H12.9463V20ZM11.1885 7.96777C11.1885 7.7041 11.2676 7.48145 11.4258 7.2998C11.5898 7.11816 11.8301 7.02734 12.1465 7.02734C12.4629 7.02734 12.7031 7.11816 12.8672 7.2998C13.0312 7.48145 13.1133 7.7041 13.1133 7.96777C13.1133 8.23145 13.0312 8.45117 12.8672 8.62695C12.7031 8.80273 12.4629 8.89062 12.1465 8.89062C11.8301 8.89062 11.5898 8.80273 11.4258 8.62695C11.2676 8.45117 11.1885 8.23145 11.1885 7.96777ZM17.0947 10.4902L17.1475 11.6855C17.874 10.7715 18.8232 10.3145 19.9951 10.3145C22.0049 10.3145 23.0186 11.4482 23.0361 13.7158V20H21.4102V13.707C21.4043 13.0215 21.2461 12.5146 20.9355 12.1865C20.6309 11.8584 20.1533 11.6943 19.5029 11.6943C18.9756 11.6943 18.5127 11.835 18.1143 12.1162C17.7158 12.3975 17.4053 12.7666 17.1826 13.2236V20H15.5566V10.4902H17.0947ZM31.3594 20C31.2656 19.8125 31.1895 19.4785 31.1309 18.998C30.375 19.7832 29.4727 20.1758 28.4238 20.1758C27.4863 20.1758 26.7158 19.9121 26.1123 19.3848C25.5146 18.8516 25.2158 18.1777 25.2158 17.3633C25.2158 16.373 25.5908 15.6055 26.3408 15.0605C27.0967 14.5098 28.1572 14.2344 29.5225 14.2344H31.1045V13.4873C31.1045 12.9189 30.9346 12.4678 30.5947 12.1338C30.2549 11.7939 29.7539 11.624 29.0918 11.624C28.5117 11.624 28.0254 11.7705 27.6328 12.0635C27.2402 12.3564 27.0439 12.7109 27.0439 13.127H25.4092C25.4092 12.6523 25.5762 12.1953 25.9102 11.7559C26.25 11.3105 26.707 10.959 27.2812 10.7012C27.8613 10.4434 28.4971 10.3145 29.1885 10.3145C30.2842 10.3145 31.1426 10.5898 31.7637 11.1406C32.3848 11.6855 32.707 12.4385 32.7305 13.3994V17.7764C32.7305 18.6494 32.8418 19.3438 33.0645 19.8594V20H31.3594ZM28.6611 18.7607C29.1709 18.7607 29.6543 18.6289 30.1113 18.3652C30.5684 18.1016 30.8994 17.7588 31.1045 17.3369V15.3857H29.8301C27.8379 15.3857 26.8418 15.9688 26.8418 17.1348C26.8418 17.6445 27.0117 18.043 27.3516 18.3301C27.6914 18.6172 28.1279 18.7607 28.6611 18.7607ZM36.8174 10.4902L36.8701 11.6855C37.5967 10.7715 38.5459 10.3145 39.7178 10.3145C41.7275 10.3145 42.7412 11.4482 42.7588 13.7158V20H41.1328V13.707C41.127 13.0215 40.9688 12.5146 40.6582 12.1865C40.3535 11.8584 39.876 11.6943 39.2256 11.6943C38.6982 11.6943 38.2354 11.835 37.8369 12.1162C37.4385 12.3975 37.1279 12.7666 36.9053 13.2236V20H35.2793V10.4902H36.8174ZM49.0254 18.8486C49.6055 18.8486 50.1123 18.6729 50.5459 18.3213C50.9795 17.9697 51.2197 17.5303 51.2666 17.0029H52.8047C52.7754 17.5479 52.5879 18.0664 52.2422 18.5586C51.8965 19.0508 51.4336 19.4434 50.8535 19.7363C50.2793 20.0293 49.6699 20.1758 49.0254 20.1758C47.7305 20.1758 46.6992 19.7451 45.9316 18.8838C45.1699 18.0166 44.7891 16.833 44.7891 15.333V15.0605C44.7891 14.1348 44.959 13.3115 45.2988 12.5908C45.6387 11.8701 46.125 11.3105 46.7578 10.9121C47.3965 10.5137 48.1494 10.3145 49.0166 10.3145C50.083 10.3145 50.9678 10.6338 51.6709 11.2725C52.3799 11.9111 52.7578 12.7402 52.8047 13.7598H51.2666C51.2197 13.1445 50.9854 12.6406 50.5635 12.248C50.1475 11.8496 49.6318 11.6504 49.0166 11.6504C48.1904 11.6504 47.5488 11.9492 47.0918 12.5469C46.6406 13.1387 46.415 13.9971 46.415 15.1221V15.4297C46.415 16.5254 46.6406 17.3691 47.0918 17.9609C47.543 18.5527 48.1875 18.8486 49.0254 18.8486ZM49.2891 20.0791L49.1836 20.5361C50.0801 20.6943 50.5283 21.2012 50.5283 22.0566C50.5283 22.625 50.2939 23.0732 49.8252 23.4014C49.3564 23.7354 48.7031 23.9023 47.8652 23.9023L47.8037 22.9619C48.2666 22.9619 48.624 22.8857 48.876 22.7334C49.1338 22.5811 49.2627 22.3672 49.2627 22.0918C49.2627 21.834 49.1689 21.6436 48.9814 21.5205C48.7939 21.3975 48.4131 21.3096 47.8389 21.2568L48.1201 20.0791H49.2891ZM60.5039 20C60.4102 19.8125 60.334 19.4785 60.2754 18.998C59.5195 19.7832 58.6172 20.1758 57.5684 20.1758C56.6309 20.1758 55.8604 19.9121 55.2568 19.3848C54.6592 18.8516 54.3604 18.1777 54.3604 17.3633C54.3604 16.373 54.7354 15.6055 55.4854 15.0605C56.2412 14.5098 57.3018 14.2344 58.667 14.2344H60.249V13.4873C60.249 12.9189 60.0791 12.4678 59.7393 12.1338C59.3994 11.7939 58.8984 11.624 58.2363 11.624C57.6562 11.624 57.1699 11.7705 56.7773 12.0635C56.3848 12.3564 56.1885 12.7109 56.1885 13.127H54.5537C54.5537 12.6523 54.7207 12.1953 55.0547 11.7559C55.3945 11.3105 55.8516 10.959 56.4258 10.7012C57.0059 10.4434 57.6416 10.3145 58.333 10.3145C59.4287 10.3145 60.2871 10.5898 60.9082 11.1406C61.5293 11.6855 61.8516 12.4385 61.875 13.3994V17.7764C61.875 18.6494 61.9863 19.3438 62.209 19.8594V20H60.5039ZM57.8057 18.7607C58.3154 18.7607 58.7988 18.6289 59.2559 18.3652C59.7129 18.1016 60.0439 17.7588 60.249 17.3369V15.3857H58.9746C56.9824 15.3857 55.9863 15.9688 55.9863 17.1348C55.9863 17.6445 56.1562 18.043 56.4961 18.3301C56.8359 18.6172 57.2725 18.7607 57.8057 18.7607ZM69.9609 17.4775C69.9609 17.0381 69.7939 16.6982 69.46 16.458C69.1318 16.2119 68.5547 16.001 67.7285 15.8252C66.9082 15.6494 66.2549 15.4385 65.7686 15.1924C65.2881 14.9463 64.9307 14.6533 64.6963 14.3135C64.4678 13.9736 64.3535 13.5693 64.3535 13.1006C64.3535 12.3213 64.6816 11.6621 65.3379 11.123C66 10.584 66.8438 10.3145 67.8691 10.3145C68.9473 10.3145 69.8203 10.5928 70.4883 11.1494C71.1621 11.7061 71.499 12.418 71.499 13.2852H69.8643C69.8643 12.8398 69.6738 12.4561 69.293 12.1338C68.918 11.8115 68.4434 11.6504 67.8691 11.6504C67.2773 11.6504 66.8145 11.7793 66.4805 12.0371C66.1465 12.2949 65.9795 12.6318 65.9795 13.0479C65.9795 13.4404 66.1348 13.7363 66.4453 13.9355C66.7559 14.1348 67.3154 14.3252 68.124 14.5068C68.9385 14.6885 69.5977 14.9053 70.1016 15.1572C70.6055 15.4092 70.9775 15.7139 71.2178 16.0713C71.4639 16.4229 71.5869 16.8535 71.5869 17.3633C71.5869 18.2129 71.2471 18.8955 70.5674 19.4111C69.8877 19.9209 69.0059 20.1758 67.9219 20.1758C67.1602 20.1758 66.4863 20.041 65.9004 19.7715C65.3145 19.502 64.8545 19.127 64.5205 18.6465C64.1924 18.1602 64.0283 17.6357 64.0283 17.0732H65.6543C65.6836 17.6182 65.9004 18.0518 66.3047 18.374C66.7148 18.6904 67.2539 18.8486 67.9219 18.8486C68.5371 18.8486 69.0293 18.7256 69.3984 18.4795C69.7734 18.2275 69.9609 17.8936 69.9609 17.4775Z" fill="#F1F1F1"/>
</svg>
